<?xml version="1.0" standalone="no"?><!DOCTYPE svg PUBLIC "-//W3C//DTD SVG 1.1//EN" "http://www.w3.org/Graphics/SVG/1.1/DTD/svg11.dtd"><svg t="1655864032222" class="icon" viewBox="0 0 1024 1024" version="1.1" xmlns="http://www.w3.org/2000/svg" p-id="1480" xmlns:xlink="http://www.w3.org/1999/xlink" width="200" height="200"><defs><style type="text/css">@font-face { font-family: feedback-iconfont; src: url("//at.alicdn.com/t/font_1031158_u69w8yhxdu.woff2?t=1630033759944") format("woff2"), url("//at.alicdn.com/t/font_1031158_u69w8yhxdu.woff?t=1630033759944") format("woff"), url("//at.alicdn.com/t/font_1031158_u69w8yhxdu.ttf?t=1630033759944") format("truetype"); }
</style></defs><path d="M836.077037 115.579259a513.327407 513.327407 0 0 0-94.814815-61.345185 512 512 0 0 1-632.414815 773.404445 512 512 0 1 0 727.22963-712.05926z" fill="#BDDDFA" p-id="1481"></path><path d="M512 0a512 512 0 1 0 512 512A512 512 0 0 0 512 0z m436.148148 512a436.148148 436.148148 0 0 1-8.722963 86.85037c-98.322963-267.093333-205.558519-279.893333-328.438518-293.925926a673.754074 673.754074 0 0 1-126.388148-23.419259c-44.942222-13.937778-77.653333-34.607407-98.038519-61.44 91.496296-50.062222 206.127407-78.601481 342.755556-85.333333A436.148148 436.148148 0 0 1 948.148148 512zM679.442963 109.131852c-120.13037 11.093333-222.72 39.822222-306.915556 85.997037a147.911111 147.911111 0 0 1-4.266666-94.814815 435.105185 435.105185 0 0 1 311.182222 8.817778z m-421.451852 170.666667a887.371852 887.371852 0 0 1-32.331852-95.952593 437.096296 437.096296 0 0 1 110.838519-70.731852 167.158519 167.158519 0 0 0 9.671111 93.866667l1.422222 2.465185a512 512 0 0 0-90.074074 70.352593z m-56.414815-73.765926a927.288889 927.288889 0 0 0 33.848889 96.90074c-5.12 5.688889-10.24 11.282963-15.075555 17.256297a497.208889 497.208889 0 0 0-38.968889 55.182222 59.828148 59.828148 0 0 0-27.401482-15.36 80.782222 80.782222 0 0 0-53.665185 8.059259 436.906667 436.906667 0 0 1 101.262222-162.038518zM88.272593 408.746667c20.29037-14.980741 41.813333-25.41037 58.974814-21.143704a35.84 35.84 0 0 1 18.962963 13.842963 606.814815 606.814815 0 0 0-66.37037 253.155555 434.441481 434.441481 0 0 1-11.567407-245.854814z m40.201481 310.802963c-2.654815-66.37037 2.844444-177.588148 53.76-285.392593a229.357037 229.357037 0 0 1 5.973333 25.031111c6.826667 37.167407 10.24 72.628148 13.463704 106.761482 11.472593 119.940741 21.617778 226.133333 166.115556 357.451851a438.518519 438.518519 0 0 1-239.312593-203.851851z m303.407407 221.108148c-179.105185-142.885926-189.914074-252.207407-201.86074-377.362963-3.318519-34.797037-6.731852-70.826667-13.842963-109.226667a200.248889 200.248889 0 0 0-16.592593-53.191111 461.084444 461.084444 0 0 1 42.856296-62.767407c1.706667-2.085926 3.602963-4.077037 5.404445-6.162963a1040.971852 1040.971852 0 0 0 55.466667 106.761481 982.755556 982.755556 0 0 0 482.986666 412.065185 434.251852 434.251852 0 0 1-354.133333 89.884445zM810.002963 829.62963c-319.241481-123.259259-471.988148-362.666667-541.013333-521.481482a481.185185 481.185185 0 0 1 92.349629-74.145185c24.177778 33.09037 62.103704 58.311111 114.820741 74.24a696.699259 696.699259 0 0 0 131.508148 24.557037c123.922963 14.506667 222.53037 25.884444 318.293333 314.88a437.001481 437.001481 0 0 1-115.579259 182.044444z" fill="#0788FF" p-id="1482"></path></svg>